<svg width="336" height="366" viewBox="0 0 336 366" fill="none" xmlns="http://www.w3.org/2000/svg">
<path d="M330.84 240.03C331.74 239.92 333.36 239.549 333.42 239.729C333.92 241.139 334.62 242.76 334.33 244.12C331.87 255.55 328.41 266.659 323.25 277.189C322.43 278.859 321.6 280.509 320.77 282.169C318.41 284.169 316.6 286.63 315.33 289.4C312.35 295.93 307.42 301.079 303.22 306.729C301.4 309.169 299.09 311.22 297.35 313.77C296.3 315.31 294.78 316.499 293.05 317.319C288.31 319.549 283.49 321.619 278.4 322.939C275.89 323.589 273.58 324.72 271.2 325.67C264.13 328.48 256.87 330.729 249.72 333.319C238.5 337.389 227.25 341.389 216 345.379C205.68 349.039 195.36 352.7 185.02 356.3C179.24 358.31 173.49 360.4 167.78 362.61C164.49 363.88 161.08 363.36 157.63 363.33C150.43 363.26 143.62 361.769 136.86 359.629C134.41 358.859 131.84 358.63 129.34 358.09C125.96 357.36 122.84 355.89 119.52 354.99C118.57 354.73 117.68 354.23 116.65 354.55C98.9298 348.13 82.6598 339.24 68.6498 326.49C69.1498 325.09 70.2698 325.709 70.7698 326.159C75.2698 330.149 79.9398 327.99 84.2998 326.3C93.1298 322.89 102.17 320.059 110.99 316.599C116.66 314.379 122.58 312.709 128.27 310.469C128.88 310.229 129.84 310.259 129.91 309.439C129.98 308.599 129.05 308.48 128.46 308.21C126.4 307.28 124.78 305.98 124.34 303.61C124.33 303.56 124.46 303.459 124.53 303.409C124.68 303.299 124.85 303.329 125.04 303.469C178.03 330.199 246.89 311.66 273.41 257.87C275.39 258.68 274.42 260.11 274.06 261.31C273.19 264.18 273.13 264.089 276.15 263.599C278.33 263.239 280.26 262.229 282.29 261.509C291.84 258.119 301.33 254.56 310.99 251.46C316.69 249.63 322.13 247.01 327.94 245.37C331.4 244.38 331.4 243.97 330.84 240.03Z" fill="#790EB7"/>
<path d="M5.73975 105.35C11.6497 85.7095 22.0397 68.6395 35.7397 53.5295C51.5897 36.0495 70.4797 23.0595 92.2197 13.5995C118.32 2.23951 145.52 -1.51049 173.42 0.529509C198.1 2.32951 221.51 9.64951 243.11 22.1195C243.64 24.1595 242.22 24.9695 240.77 25.6895C237.23 27.4695 233.43 28.6195 229.72 29.9495C219.22 33.6995 208.72 37.4895 198.18 41.1095C189.97 43.9195 182.04 47.5695 173.52 49.4695C172.37 49.7295 171.15 49.5995 170.06 50.1395C137.69 47.9595 108.81 56.6395 83.9897 77.8795C82.9697 77.9095 82.3997 78.6895 81.8797 79.3495C78.5497 83.5995 73.8697 85.5095 68.9397 87.1295C58.7397 90.4795 48.7097 94.3495 38.5797 97.8895C29.3697 101.11 20.2697 104.64 10.9797 107.61C7.67974 108.67 7.09975 108.39 5.73975 105.35Z" fill="#A108FE"/>
<path d="M25.8197 266.849C24.7697 263.859 23.7197 260.86 22.6697 257.87C23.2897 257.39 23.7697 257.729 24.2297 258.129C24.9897 259.189 25.1397 260.57 25.9997 261.59C26.2697 262.1 26.5897 262.599 26.8297 263.129C27.4997 264.179 28.4697 264.03 29.4697 263.81C31.4097 263.39 33.3097 262.85 35.1497 262.12C48.9097 256.63 63.0197 252.08 76.9597 247.11C89.6897 242.57 102.41 237.97 115.2 233.58C123.87 230.61 132.44 227.209 141.11 224.259C153.44 220.059 165.62 215.45 177.96 211.26C186.08 208.5 194.12 205.44 202.21 202.58C210.49 199.66 218.77 196.73 227.04 193.79C235.41 190.82 243.79 187.85 252.12 184.78C262.02 181.13 272.04 177.78 281.96 174.19C293.09 170.16 304.26 166.25 315.4 162.25C315.86 162.08 316.38 162.01 316.79 161.74C317.83 161.06 320.2 161.15 319.55 159.51C318.99 158.09 316.89 159 315.48 159.25C314.68 159.39 314.22 160.17 313.54 160.59C312.92 160.92 312.29 161.33 311.6 161.28C303.52 160.7 296.31 164.73 288.52 165.71C286.88 165.92 285.21 166.15 283.57 166.51C282.59 166.72 281.32 166.93 281.01 165.36C293.15 162.47 305.36 159.85 317.4 156.59C323.19 155.02 323.32 159.17 324.78 162.35C325.22 165.35 326.18 168.22 327.13 171.08C327.99 173.68 327.51 174.83 325.05 176.09C324.43 176.41 323.78 176.63 323.13 176.86C307.8 182.39 292.38 187.67 277.05 193.2C256.14 200.74 235.13 207.98 214.25 215.59C200.98 220.43 187.63 225.049 174.34 229.819C161.51 234.419 148.69 239.039 135.8 243.479C126.46 246.689 117.26 250.32 107.91 253.49C95.3797 257.74 82.9197 262.229 70.4797 266.729C61.1997 270.089 51.6997 272.89 42.6397 276.86C40.2797 277.9 37.7097 278.29 35.2497 279.02C33.1997 279.63 31.8197 278.6 30.9697 276.77C30.2697 275.25 29.7397 273.649 28.6897 272.319C27.1997 270.779 27.4197 268.339 25.8197 266.849Z" fill="#850CCE"/>
<path d="M304.14 86.3595C305.15 88.2495 306.17 90.1295 307.18 92.0195C307.36 93.1895 307.66 94.3195 308.02 95.4495C308.93 98.2795 308.48 99.5495 305.82 100.999C302.86 102.609 299.64 103.629 296.46 104.709C286.83 107.979 277.3 111.509 267.7 114.859C255.13 119.239 242.6 123.759 230.04 128.139C221.19 131.229 212.37 134.429 203.55 137.639C196.42 140.239 189.36 143.069 182.04 145.109C181.66 145.219 181.27 145.309 180.91 145.469C172.47 149.119 163.66 151.769 155.03 154.899C145.94 158.189 136.85 161.509 127.73 164.709C120.57 167.229 113.41 169.819 106.27 172.389C94.7598 176.529 83.2298 180.669 71.6798 184.709C61.5298 188.259 51.4198 191.919 41.2698 195.479C32.9798 198.389 24.7598 201.489 16.3798 204.149C13.5998 205.029 12.1698 203.459 10.4498 202.069C8.84977 198.149 7.53977 194.219 5.94977 190.289C5.60977 189.289 6.09977 189.389 6.61977 189.399C9.95977 189.469 13.0498 188.469 16.0898 187.279C29.8798 181.869 44.0098 177.429 57.8798 172.229C68.5898 168.219 79.3998 164.419 90.2298 160.749C104.07 156.059 117.77 151.009 131.52 146.079C150.29 139.349 169.1 132.719 187.87 125.979C201.71 121.009 215.59 116.139 229.46 111.259C242.02 106.839 254.61 102.459 267.09 97.7795C278.27 93.5895 289.68 90.0395 300.8 85.6595C302.06 85.1795 303.28 84.8795 304.14 86.3595Z" fill="#9209E4"/>
<path d="M311.4 103.51C312.52 107.49 313.65 111.47 314.77 115.45C314.7 117.16 313.67 118.15 312.19 118.72C304.65 121.66 296.99 124.26 289.34 126.88C287.29 127.58 285.23 128.26 283.2 129.03C270.1 134.02 256.83 138.56 243.62 143.23C230.79 147.77 217.99 152.43 205.1 156.82C197.73 159.33 190.36 161.9 183.09 164.71C176.09 167.41 168.83 169.39 161.93 172.39C160.01 173.22 157.85 173.03 155.93 173.87C155.06 174.25 153.95 174.25 153.6 175.41C122.98 182.95 92.3497 190.48 61.7297 198.04C56.4997 199.33 52.2497 200.02 47.0297 201.36C45.7197 202.11 43.2397 201.91 41.9197 202.59C35.8297 204.2 29.7397 205.82 23.6597 207.43C23.0097 207.68 22.1997 208.02 21.8297 207.27C21.4297 206.47 22.3097 206.01 22.8697 205.76C26.2897 204.23 29.9697 203.46 33.5197 202.29C41.1897 199.77 49.2297 198.85 56.9097 195.98C73.5597 189.77 90.3497 183.94 107.11 178.02C117.16 174.47 127.19 170.85 137.24 167.31C145.53 164.39 153.88 161.63 162.12 158.59C176.21 153.39 190.37 148.39 204.52 143.4C222.59 137.03 240.6 130.49 258.71 124.22C266.07 121.67 273.44 119.06 280.75 116.36C288.98 113.31 297.17 110.06 305.63 107.63C307.44 107.11 309.27 106.61 309.84 104.38C310 103.74 310.51 103.16 311.4 103.51Z" fill="#8F0ADF"/>
<path d="M311.4 103.51C306.36 112.12 296.45 111.08 288.86 114.37C274.64 120.53 259.69 125.01 245.04 130.17C221.1 138.6 197.12 146.94 173.21 155.46C158.29 160.77 143.5 166.46 128.58 171.75C105.73 179.86 82.6898 187.46 59.9698 195.9C48.5098 200.15 36.5098 202.06 24.9498 205.72C24.0598 206 23.3198 206.75 22.5098 207.28C22.8898 207.34 23.2798 207.4 23.6598 207.46C17.6998 209.51 13.2198 210.45 10.4598 202.1C22.3798 204.68 31.8598 197.19 42.2498 193.94C62.5798 187.58 82.5298 179.99 102.61 172.83C117.16 167.64 131.63 162.24 146.18 157.07C163.92 150.77 181.74 144.67 199.47 138.35C213.92 133.2 228.28 127.76 242.73 122.59C262.8 115.41 282.86 108.17 303.06 101.4C308.68 99.5195 307.97 96.0895 307.18 92.0295C308.59 95.8495 309.99 99.6795 311.4 103.51Z" fill="#900AE0"/>
<path d="M116.66 354.549C119.29 352.579 121.52 354.909 123.8 355.409C133.14 357.489 142.32 360.34 151.7 362.15C166.69 365.03 179.31 356.809 192.66 352.349C211.26 346.149 229.76 339.65 248.22 333.05C263.02 327.76 277.99 322.77 292.31 316.36C298.96 313.38 302.84 306.09 307.11 300.03C311.26 294.14 315.13 288.049 319.16 282.069C319.57 281.459 320.31 280.649 320.75 282.159C313.03 296.569 303.28 309.37 291.38 320.65C274.5 336.64 255.08 348.26 233.25 356.03C209.37 364.53 184.76 366.809 159.62 364.629C144.81 363.349 130.48 360.039 116.66 354.549Z" fill="#760DB4"/>
<path d="M304.14 86.3595C301.84 84.9595 300.21 87.0195 298.43 87.6595C268.2 98.4095 238.03 109.33 207.82 120.15C181.22 129.67 154.58 139.11 127.96 148.57C95.6297 160.07 63.2997 171.59 30.9497 183.04C24.0097 185.5 16.9997 187.78 9.97974 190.01C8.63974 190.44 7.38974 190.21 5.93974 190.3C5.57974 188.68 4.91974 187.06 4.54974 185.44C16.3497 183.42 27.0898 178.13 38.3698 174.5C46.0698 172.02 53.5997 169.09 61.2197 166.43C70.1497 163.31 79.0297 160 87.9597 156.88C102.39 151.85 116.76 146.63 131.17 141.55C144.37 136.9 157.57 132.24 170.7 127.36C181.79 123.24 193.05 119.6 204.14 115.47C208.75 113.75 213.47 112.27 218.01 110.35C218.83 110 220.42 110.04 219.85 108.31C225.98 106.7 232.11 105.09 238.24 103.48C239.65 103.15 241.25 103.57 242.43 102.38C243.54 102.13 244.65 101.84 245.77 101.63C250.52 100.74 251.79 98.5695 248.37 94.6395C248.25 93.9995 248.65 93.6795 249.16 93.6495C255.59 93.3095 261.27 90.2995 267.15 88.2295C276.15 85.0595 285.1 81.7395 294.17 78.7895C296.35 78.0795 296.28 75.8495 297.99 75.1495C300.16 78.8395 303.21 82.0195 304.14 86.3595Z" fill="#9409E7"/>
<path d="M153.6 175.42C153.14 175.3 152.67 175.18 152.21 175.06C152.71 174.71 153.17 174.22 153.73 174.02C167.72 169.12 181.76 164.35 195.71 159.35C226.04 148.48 256.32 137.48 286.64 126.59C294.76 123.68 302.97 121.04 311.09 118.13C312.46 117.64 313.55 116.36 314.77 115.44C315.95 120.68 317.35 125.88 318.23 131.17C318.96 135.58 315.3 135.69 312.33 136.43C293.11 141.23 273.93 146.19 254.7 150.92C226.04 157.96 197.35 164.86 168.67 171.82C163.64 173.04 158.62 174.22 153.6 175.42Z" fill="#8D0ADB"/>
<path d="M28.8598 271.469C32.3598 281.369 38.7298 277.22 44.9898 274.96C79.5298 262.49 114.09 250.05 148.7 237.76C189.35 223.33 230.07 209.09 270.73 194.7C288.56 188.39 306.41 182.15 324.06 175.38C330.55 172.89 323.3 168.11 324.78 164.5C325.03 163.89 324.79 163.07 324.78 162.35C326.34 166.31 327.9 170.28 329.45 174.24C329.22 175.75 330.07 177.1 330.06 178.58C329.98 178.89 329.83 179.15 329.61 179.37C325.96 181.62 321.89 182.9 317.89 184.28C306.6 188.17 295.43 192.42 284.14 196.3C272.11 200.43 260.11 204.68 248.14 208.96C239.51 212.05 230.84 215.07 222.25 218.3C215.16 220.96 208.04 223.689 200.72 225.719C199.19 226.139 197.77 226.85 196.29 227.41C183 232.44 169.53 237 156.17 241.82C146.8 245.2 137.43 248.58 128 251.79C126.59 252.27 125.3 253.01 123.94 253.59C121.51 254.39 118.79 254.31 116.67 256.05C109.69 258.66 102.49 260.44 95.2298 262.02C92.4598 262.62 89.8198 263.77 87.0198 264.28C84.9898 264.64 84.3397 266.46 83.0697 267.63C73.2897 271.33 63.4398 274.83 53.5298 278.18C47.5498 280.2 41.8598 283.06 35.6098 284.28C33.4198 284.19 33.3798 281.94 32.1698 280.87C31.1998 278.58 30.5298 276.15 28.9598 274.12C28.3898 273.37 28.0998 272.389 28.8598 271.469Z" fill="#830CCB"/>
<path d="M4.30977 184.38C3.32977 179.61 1.88977 174.33 0.919773 169.56C0.639773 168.97 0.549779 168.37 1.26978 168.08C1.91978 167.81 2.53977 168.17 2.75977 168.72C3.87977 171.55 5.76977 170.82 7.80977 169.98C17.1298 166.15 26.7898 163.26 36.2398 159.78C45.9698 156.2 55.8398 152.99 65.4798 149.16C65.8398 149.02 66.1798 148.8 66.5598 148.68C67.7798 148.29 69.1198 148.42 70.2998 147.84C69.3398 147.88 68.3498 148.13 67.4698 147.55C66.8198 147.13 66.0498 146.76 66.2498 145.75C96.2598 138.31 126.26 130.86 156.27 123.43C157.5 123.12 158.76 122.94 160.01 122.69C161.33 123.02 162.56 123 163.48 121.78C164.09 121.64 164.7 121.5 165.31 121.36C167.43 121.59 169.29 120.39 171.35 120.23C172.1 120.17 172.95 119.47 173.24 120.67C173.49 121.7 172.74 122.45 171.89 122.71C169.54 123.43 167.3 124.48 164.91 125.08C160.8 126.12 156.74 127.33 152.76 128.81C143.04 132.4 133.24 135.76 123.51 139.3C114.7 142.5 105.86 145.65 97.0198 148.75C89.6698 151.32 82.5198 154.49 74.9498 156.4C72.9198 156.91 71.0998 157.93 69.1598 158.66C56.3298 163.51 43.3598 167.97 30.4198 172.48C23.5498 174.88 16.9298 178.13 9.72977 179.61C7.16977 180.13 6.06977 182.68 4.30977 184.38Z" fill="#9609EA"/>
<path d="M281.02 165.349C289.24 165.779 296.84 162.789 304.49 160.609C307.7 159.699 310.75 161.699 313.63 159.929C314.62 159.299 315.56 158.449 316.86 159.069C317.36 159.309 317.56 159.809 317.34 160.319C316.8 161.569 315.57 161.779 314.46 162.169C304.49 165.649 294.57 169.289 284.59 172.729C272.37 176.939 260.28 181.509 248.03 185.659C239.34 188.599 230.72 191.779 222.08 194.899C214.66 197.579 207.21 200.189 199.76 202.789C192.4 205.369 185.05 207.989 177.72 210.669C167.05 214.559 156.3 218.209 145.64 222.119C132.2 227.059 118.71 231.859 105.22 236.639C91.2597 241.579 77.2898 246.509 63.3298 251.429C52.1598 255.369 40.9897 259.33 29.8197 263.28C28.5097 263.74 27.1797 264.249 25.8997 263.169C25.6997 262.769 25.4998 262.379 25.3098 261.979C25.5898 261.289 25.2097 260.4 25.9297 259.84C29.3997 257.86 33.3798 257.309 37.0798 255.929C50.2998 250.979 63.5998 246.199 76.9298 241.569C91.3798 236.549 105.79 231.389 120.2 226.249C132.57 221.839 144.92 217.349 157.3 212.989C171.83 207.859 186.35 202.729 200.87 197.569C213.61 193.039 226.36 188.509 239.09 183.929C253.77 178.649 268.53 173.569 283.17 168.179C283.54 168.039 283.93 167.969 284.29 167.789C283.92 167.739 283.54 167.779 283.2 167.859C278.14 169.119 272.94 169.669 267.91 171.029C262.2 172.579 256.34 173.639 250.79 175.709C241.87 179.029 232.2 179.289 223.28 182.229C217.65 184.089 211.8 184.949 206.25 186.939C205.69 187.139 205.12 187.369 204.53 187.379C198.53 187.529 192.94 189.669 187.19 190.979C186.44 191.009 185.76 191.299 185.04 191.479C183.78 191.649 182.43 191.499 181.45 192.609C180.66 193.159 179.78 193.389 178.83 193.399C177.25 193.399 175.66 193.369 174.15 193.969C159.72 197.839 145.07 200.86 130.67 204.84C127.27 205.78 123.7 206.019 120.25 206.769C119.34 206.969 118.22 207.169 117.9 205.759C145.37 198.959 172.84 192.159 200.31 185.349C227.21 178.689 254.12 172.019 281.02 165.349Z" fill="#880CD1"/>
<path d="M170.06 50.1395C178.12 47.1895 186.17 44.2095 194.25 41.3095C209.88 35.7095 225.54 30.1895 241.15 24.5295C241.99 24.2295 242.47 22.9495 243.12 22.1195C247.67 25.1295 252.23 28.1295 256.78 31.1395C256.89 31.6395 257.25 31.9795 257.55 32.3795C259.14 34.4795 259.02 35.3795 256.62 36.3995C253.18 37.8595 249.76 39.4695 246.16 40.4695C238.46 42.6095 231.11 45.7695 223.59 48.4295C216.45 50.9595 209.09 52.9095 202.19 56.1095C200.59 56.8495 199.13 56.4795 197.65 55.8295C195.49 54.8895 193.28 54.1595 190.89 54.1295C185.72 52.9695 180.55 51.8095 175.38 50.6495C173.75 50.1695 172.03 50.7695 170.4 50.2495L170.21 50.2795L170.06 50.1395Z" fill="#9F07FA"/>
<path d="M5.73974 105.35C11.3897 109.96 16.0397 104.7 20.6097 103.22C38.6397 97.3595 56.3297 90.4595 74.2597 84.2895C78.2297 82.9295 80.0397 78.8995 83.9897 77.8795C77.5997 84.3095 71.8097 91.2395 66.8397 98.8395C65.1597 100.2 64.1497 102.12 62.8397 103.77C61.4797 105.48 59.9697 106.76 57.9397 107.39C49.4597 110.01 41.3297 113.65 32.7997 116.14C29.3797 117.14 26.1697 118.67 22.8397 119.92C17.3097 121.99 11.4297 122.72 5.88973 124.77C2.67973 125.96 0.81973 123.89 1.86973 120.64C2.68973 118.09 2.83973 115.46 3.27973 112.86C4.09973 110.36 4.91974 107.85 5.73974 105.35Z" fill="#9F07FA"/>
<path d="M240.64 85.2195C235.43 79.2095 229.32 74.2295 222.92 69.5695C223.04 68.3395 223.98 68.2495 224.86 68.2895C228.31 68.4495 231.41 67.1895 234.55 66.0295C245.99 61.8095 257.53 57.8595 269 53.7195C269.93 53.3895 270.83 52.9895 271.74 52.6295C274.03 51.7095 276.64 51.0295 274.79 47.5795C274.58 47.1895 274.82 46.5995 275.53 46.6595C280.68 52.5895 285.82 58.5195 290.97 64.4495C291.26 67.5795 290.8 68.4395 287.97 69.1795C284.52 70.0795 281.31 71.5995 277.97 72.7295C269.22 75.6895 260.7 79.2795 251.81 81.8395C249.26 82.5695 246.89 83.8395 244.38 84.7095C243.15 85.1395 241.95 85.4995 240.64 85.2195Z" fill="#9908EF"/>
<path d="M48.4298 306.479C45.8298 302.779 43.2298 299.09 40.6298 295.39C40.9798 293.76 41.9298 294.67 42.2898 295.17C43.5298 296.89 45.4298 297.859 46.8298 299.349C47.9698 300.549 49.0398 300.72 50.5198 300.18C62.2698 295.88 74.2498 292.189 85.8498 287.479C87.5998 286.769 89.4998 286.62 91.2598 285.96C93.9898 284.94 94.3998 283.779 92.9098 281.229C92.3098 280.209 91.3798 279.389 91.0298 278.229C90.8098 277.529 90.5198 276.599 91.8898 276.729C94.7598 279.929 97.6298 283.13 100.51 286.33C101.78 288.59 103.97 289.98 105.82 291.64C107.77 293.38 109.35 295.35 110.85 297.43C112.24 299.35 111.95 300.27 109.67 301.27C106.96 302.47 104.22 303.599 101.41 304.539C90.8398 308.099 80.3298 311.799 69.9098 315.759C69.2598 316.009 68.5598 316.119 67.9398 316.419C62.4898 319.029 58.6698 316.52 54.8898 312.74C52.7898 310.63 51.5898 307.509 48.4298 306.479Z" fill="#7F0CC2"/>
<path d="M48.4297 306.48C52.1797 306.32 53.4897 310.03 55.1397 311.92C59.8897 317.35 64.6097 316.99 70.4797 314.74C83.1997 309.86 96.0398 305.28 108.87 300.69C111.07 299.9 111.58 299.39 109.79 297.43C106.54 293.88 103.58 290.05 100.5 286.34C108.09 292.9 116.32 298.54 125.04 303.47C125.84 304.63 126.39 306.28 127.49 306.83C129.2 307.7 131.15 308.07 132.24 309.87C130.43 310.54 128.63 311.23 126.81 311.87C110.35 317.71 93.8597 323.47 77.4297 329.42C73.4897 330.84 72.0497 325.96 68.6297 326.49C61.1097 320.63 54.6097 313.72 48.4297 306.48Z" fill="#7C0DBE"/>
<path d="M4.1598 183.86C4.4198 180.16 7.24979 179.44 9.80979 178.51C25.0198 173.02 40.2698 167.67 55.5298 162.33C78.9398 154.13 102.38 146.02 125.78 137.8C137.26 133.77 148.68 129.55 160.14 125.47C163.17 124.39 166.29 123.54 169.36 122.55C170.45 122.2 171.51 121.76 172.56 121.31C172.64 121.27 172.55 120.83 172.53 120.57C171.38 120.72 170.22 120.78 169.1 121.03C167.84 121.31 166.71 122.69 165.31 121.38C176.98 118.64 188.65 115.9 200.31 113.15C201.14 113.78 202.71 113.79 202.7 115.08C202.68 116.53 201.12 116.71 200.08 117.12C191.28 120.54 182.36 123.61 173.39 126.54C171.7 127.09 170.09 127.82 168.43 128.44C155.09 133.46 141.61 138.09 128.18 142.87C120.78 145.5 113.36 148.11 105.96 150.72C96.6098 154.02 87.2198 157.25 77.9298 160.72C67.9898 164.43 57.9598 167.93 47.9498 171.42C40.7098 173.94 33.6198 176.89 26.2398 179.02C20.8598 180.57 15.7498 182.94 10.3898 184.63C7.92979 185.41 6.41979 185.14 4.30979 184.39C4.16979 184.28 4.0798 184.02 4.1598 183.86Z" fill="#9509E8"/>
<path d="M178.96 192.56C179.75 192.36 180.54 192.159 181.33 191.969C182.35 191.189 183.44 191.26 184.56 191.67C185.36 193.53 183.6 193.47 182.75 193.92C177.9 196.45 172.48 197.38 167.41 199.34C154.89 204.18 142.15 208.46 129.53 213.03C119.23 216.76 108.91 220.45 98.5698 224.06C87.3798 227.97 76.2498 232.019 65.0898 235.999C54.9598 239.609 44.7598 243.01 34.6798 246.78C30.8198 248.23 26.7998 249.3 22.8598 250.56C21.0798 250.48 20.7498 249.079 20.4098 247.749C20.1498 246.729 20.3098 245.57 19.3298 244.83C18.6998 241.68 18.0898 238.53 17.4398 235.39C16.3298 230.06 20.1898 229.62 23.7998 228.74C42.2298 224.23 60.6398 219.609 79.0698 215.099C91.9998 211.929 104.95 208.869 117.89 205.759C126.19 205.819 133.84 202.65 141.77 200.89C152.62 198.48 163.4 195.749 174.21 193.159C175.83 193.239 177.47 193.49 178.96 192.56Z" fill="#8A0CD5"/>
<path d="M91.8997 276.73C91.7497 276.96 91.4197 277.35 91.4597 277.4C98.4097 285.13 93.0397 286.31 86.3797 288.35C74.0997 292.12 62.1297 296.89 50.0497 301.27C46.2597 302.65 45.6397 298.31 43.0797 297.45C42.0697 297.11 42.4597 294.91 40.6397 295.38C37.8797 290.81 35.1297 286.24 32.3697 281.68C32.1697 281.41 32.1997 281.17 32.4497 280.96C33.4297 281.95 34.4097 282.94 35.3897 283.93C35.5797 283.84 35.8497 283.76 35.9397 283.88C38.5597 287.34 41.5597 286.25 44.8597 284.94C55.6497 280.63 66.6997 277.05 77.6597 273.22C80.5897 272.19 83.4897 271.38 82.8597 267.32C83.5197 265.2 85.2297 264.26 87.1497 263.72C96.9797 260.93 106.83 258.21 116.68 255.46C117.87 254.54 119.22 254.17 120.71 254.26C123.36 254.01 126.01 253.71 128.45 252.49C128.91 252.33 129.39 252.27 129.87 252.25C133.43 252.08 136.76 250.79 140.12 249.86C148.44 247.56 156.84 245.55 165.13 243.17C166.17 242.87 167.24 242.69 168.31 242.59C169.89 242.57 171.13 241.53 172.57 241.09C174.31 240.42 176.14 240.28 177.98 240.23C179.46 240.16 180.87 239.76 182.28 239.33C183.13 239.12 183.98 238.92 184.83 238.71C186.32 238.58 187.56 237.65 189.01 237.37C190.05 237.06 191.1 236.82 192.2 236.83C193.1 237 194.24 236.79 194.38 238.17C180.82 241.59 167.27 245.07 153.69 248.42C131.78 253.83 109.85 259.12 87.9397 264.55C85.4297 265.17 83.4497 266.25 86.2497 269.24C88.3697 271.5 90.0297 274.21 91.8997 276.73Z" fill="#810CC7"/>
<path d="M275.54 46.6495C278.35 56.9295 268.51 54.3795 264.62 56.0895C252.84 61.2795 240.33 64.8195 228.07 68.8995C226.46 69.4395 224.64 69.3595 222.92 69.5695C217.38 66.4095 211.84 63.2495 206.3 60.0895C206.77 58.1295 208.23 58.4195 209.58 58.7595C210.86 59.0895 212.11 59.2495 213.36 58.7495C219.6 56.2795 225.99 54.1995 232.34 52.0795C239.35 49.7395 246.06 46.5595 253.27 44.7695C256.43 43.9795 259.34 42.4095 262.4 41.3095C263.86 40.7895 264.07 39.9095 263.41 38.5495C263.07 37.8495 262.33 36.7395 263.97 36.4495C267.82 39.8495 271.68 43.2495 275.54 46.6495Z" fill="#9C07F4"/>
<path d="M240.64 85.2195C256.37 79.5995 272.08 73.8995 287.87 68.4595C290.17 67.6695 290.37 66.0995 290.98 64.4395C293.32 68.0095 295.67 71.5795 298.01 75.1495C297.94 81.4495 292.09 79.9395 288.91 81.2295C276.91 86.0795 264.59 90.1495 252.36 94.4095C251.15 94.8295 249.72 94.5795 248.38 94.6395C245.8 91.5095 243.22 88.3595 240.64 85.2195Z" fill="#9608EB"/>
<path d="M263.96 36.4495C266.79 46.5295 257.15 43.7895 253.46 45.3895C240.93 50.8395 227.62 54.4495 214.87 59.4395C211.73 60.6695 208.94 57.9195 206.3 60.0895C201.16 58.0995 196.02 56.1195 190.87 54.1295C214.31 56.1295 233.14 41.5695 254.58 36.4295C258.44 35.5095 257.21 33.3695 256.77 31.1295C259.17 32.9095 261.57 34.6795 263.96 36.4495Z" fill="#9E07F7"/>
<path d="M66.2497 145.76C67.4797 147.21 68.9798 147.36 70.7398 146.92C71.8198 146.65 72.9897 146.74 74.1097 146.67C73.0997 147.3 72.1598 148.14 71.0598 148.53C49.6398 156.16 28.1998 163.74 6.76976 171.35C4.70976 172.08 2.68976 173.24 2.37976 169.54C2.28976 168.51 1.36975 167.84 0.909755 169.58C-0.210245 165.34 -1.54026 161.91 5.28974 160.59C19.5897 157.83 33.6597 153.89 47.8197 150.44C50.7697 150.59 53.3798 149.34 56.0798 148.46C56.4898 148.33 56.8998 148.19 57.3098 148.06C58.5598 149.18 59.2998 148.18 60.0898 147.39C61.7298 147.02 63.3698 146.66 65.0198 146.29C65.1298 146.47 65.1697 146.63 65.1597 146.77C65.1897 146.62 65.1397 146.46 65.0097 146.29C65.4297 146.1 65.8397 145.93 66.2497 145.76Z" fill="#9809EE"/>
<path d="M332.22 239.679C331.98 241.209 333.58 239.709 332.91 242.189C332.43 243.939 331.77 244.869 330.14 245.449C311 252.179 291.88 258.949 272.75 265.699C272.46 265.799 272.07 265.629 271.72 265.589C272.09 264.259 272.21 262.759 272.91 261.629C273.69 260.349 274.34 259.289 273.44 257.879C278.95 251.639 283.66 251.759 289.29 250.169C302.46 246.449 315.81 243.349 329.1 240.029C329.63 239.869 331.63 239.659 332.22 239.679Z" fill="#7A0EBA"/>
<path d="M4.15979 184.369C28.1198 180.359 49.4898 169.499 72.2598 161.859C101.47 152.059 130.41 141.479 159.45 131.169C173.08 126.329 186.63 121.279 200.25 116.419C203.92 115.109 199.86 114.309 200.19 113.249C202.5 112.609 204.81 111.959 207.13 111.319C208.18 110.999 209.29 110.849 210.26 110.299C213.42 109.669 217.27 108.789 220.43 108.169C223.02 110.579 219.42 110.939 218.34 111.329C186.16 122.849 153.94 134.27 121.75 145.77C91.0298 156.75 60.3498 167.829 29.6398 178.819C22.5898 181.339 15.5098 183.76 8.36978 186.03C7.22978 186.39 5.89979 186.129 4.57979 185.949C4.35979 185.549 4.35979 184.759 4.15979 184.369Z" fill="#9409E7"/>
<path d="M3.27977 112.859C3.28977 113.939 3.59977 115.129 3.25977 116.089C0.139767 124.869 3.81977 125.159 10.8298 122.649C26.6598 116.979 42.6998 111.889 58.4598 106.029C61.6998 104.829 64.0698 101.299 66.8298 98.8395C65.1498 102.019 63.5098 105.459 61.3198 108.309C56.8298 114.139 51.0598 113.899 45.4098 115.499C31.9598 119.319 18.6998 121.599 5.14977 125.099C1.68977 125.989 0.699769 124.969 1.08977 122.469C1.59977 119.229 2.52977 116.059 3.27977 112.859Z" fill="#9D08F7"/>
<path d="M334.83 196.169C336.56 204.419 327.45 205.209 322.69 206.479C293.56 214.279 264.21 221.209 234.92 228.419C224.38 231.019 213.83 233.579 203.29 236.159C202.85 234.169 204.93 234.749 205.6 233.889C205.84 233.749 206.1 233.639 206.36 233.549C207.42 233.209 208.58 233.409 209.61 232.919C209.88 232.809 210.15 232.739 210.43 232.669C214.71 230.939 219.39 230.839 223.74 229.379C224.03 229.269 224.33 229.19 224.64 229.15C229.96 227.81 235.2 226.12 240.55 224.99C249.23 223.15 257.61 220.179 266.24 218.249C272.39 216.879 278.49 215.31 284.58 213.77C292.3 211.82 299.96 209.519 307.59 207.189C308.44 206.929 309.26 206.459 310.14 206.449C315.36 206.379 320.1 204.309 325.01 202.969C327.41 202.909 329.63 201.829 332.03 201.689C332.6 201.659 332.75 201.139 332.86 200.659C332.88 199.779 332.96 198.92 333.18 198.06C333.56 197.28 333.63 196.229 334.83 196.169Z" fill="#7F0FC2"/>
<path d="M206.25 234.09C205.27 234.78 204.28 235.469 203.3 236.159C200.32 236.829 197.35 237.499 194.37 238.159C193.59 237.989 192.8 237.819 192.02 237.649C191.94 236.259 193 235.619 193.99 235.419C197.36 234.719 200.64 233.519 204.11 233.329C204.91 233.289 205.69 233.41 206.25 234.09Z" fill="#820CC7"/>
<path d="M19.3298 244.83C20.3298 246.59 21.3298 248.35 22.3298 250.11C24.1298 252.48 24.1998 255.3 24.3898 258.09C24.2998 258.2 24.1998 258.31 24.1098 258.41C23.6298 258.23 23.1498 258.04 22.6698 257.86C21.5598 253.52 20.4398 249.18 19.3298 244.83Z" fill="#880CD1"/>
<path d="M334.83 196.17C334.49 196.75 334.15 197.33 333.81 197.91C332.91 197.59 332.64 196.84 332.74 196.03C333.21 192.12 331.46 188.59 330.89 184.87C330.35 182.99 329.65 181.11 330.55 179.14C330.67 179.05 330.79 178.96 330.92 178.87C332.22 184.63 333.52 190.4 334.83 196.17Z" fill="#800FC3"/>
<path d="M32.4498 280.96C32.4198 281.2 32.3998 281.44 32.3698 281.68C30.1898 276.73 28.0098 271.78 25.8298 266.84C28.3098 267.42 27.1598 270.38 28.8598 271.47C30.0498 274.63 31.2498 277.8 32.4498 280.96Z" fill="#830CCA"/>
<path d="M56.0998 148.44C53.4398 149.5 51.1698 152.16 47.8398 150.42C50.5898 149.76 53.3398 149.1 56.0998 148.44Z" fill="#9609EA"/>
<path d="M329.65 178.32C329.58 176.95 329.52 175.59 329.45 174.22C329.93 175.76 330.42 177.31 330.9 178.85L330.78 178.94C330.14 179.24 329.96 178.66 329.65 178.32Z" fill="#820CC7"/>
<path d="M60.1198 147.37C59.7298 147.96 59.3298 148.56 58.9398 149.15C58.4098 148.78 57.8698 148.41 57.3398 148.04C58.2598 147.82 59.1898 147.59 60.1198 147.37Z" fill="#9609EA"/>
<path d="M242.44 102.38C241.37 103.99 239.82 103.77 238.25 103.48C239.65 103.12 241.04 102.75 242.44 102.38Z" fill="#9209E4"/>
<path d="M170.38 50.2495C172.04 50.3795 173.7 50.5095 175.36 50.6495C173.7 50.5195 172.04 50.3895 170.38 50.2495Z" fill="#A108FE"/>
<path d="M163.49 121.789C162.72 123.559 161.44 123.419 160.02 122.699C161.17 122.399 162.33 122.089 163.49 121.789Z" fill="#9509E8"/>
<path d="M25.8898 263.159C34.4498 260.259 43.0198 257.43 51.5498 254.46C74.6598 246.41 97.7798 238.379 120.84 230.189C135.67 224.919 150.37 219.27 165.2 214.01C188.07 205.9 211.02 198.05 233.89 189.95C248.71 184.7 263.41 179.09 278.22 173.81C290.42 169.46 302.7 165.35 314.93 161.1C315.61 160.86 316.2 160.35 316.83 159.97C315.76 159.96 314.7 159.95 313.63 159.95C315.06 157.36 317.53 157.8 319.77 158.06C320.39 158.13 320.88 159.36 321.43 160.05C320.04 160.89 318.75 161.989 317.26 162.539C298.51 169.389 279.75 176.23 260.95 182.95C233.78 192.66 206.57 202.26 179.39 211.92C152.61 221.43 125.85 230.999 99.0498 240.469C75.9698 248.629 52.8398 256.67 29.7498 264.8C27.8498 265.46 26.5098 265.299 25.8898 263.159Z" fill="#880CD1"/>
<path d="M25.8897 260.199C25.6897 260.789 25.4897 261.389 25.2997 261.979C24.8997 260.789 24.5097 259.609 24.1097 258.419C25.4597 258.259 25.5997 259.299 25.8897 260.199Z" fill="#880CD1"/>
<path d="M329.65 178.32C330.03 178.53 330.41 178.74 330.79 178.94C331 180.71 331.22 182.48 331.43 184.25C331.83 185.95 331.7 187.71 332.27 189.42C333.09 191.9 332.01 193.33 329.53 194.32C324.95 196.16 320.15 197.29 315.54 199.07C303.03 203.9 290.32 208.19 277.71 212.74C266.79 216.68 255.91 220.84 244.76 224.13C237.89 226.16 230.93 227.92 224.05 229.93C220.35 230.55 216.7 231.4 213.04 232.2C211.89 232.45 210.77 232.78 209.81 233.49C208.72 234.24 207.34 233.32 206.25 234.08C201.37 234.75 196.41 235.07 192.01 237.64C191.02 237.84 190.03 238.04 189.04 238.23C187.4 237.72 186.22 238.84 184.89 239.42C184.1 239.62 183.31 239.82 182.52 240.01C181.04 240.07 179.58 240.21 178.37 241.2C176.39 241.4 174.41 241.6 172.44 241.79C171.09 242.06 169.9 242.64 168.88 243.57C157.45 246.42 146.03 249.28 134.59 252.11C132.99 252.51 131.35 252.75 129.72 253.06C128.97 251.59 130.18 251.37 131.07 251.08C146.75 245.97 162.33 240.56 177.85 235.01C186.59 231.88 195.33 228.74 204.07 225.6C216.89 220.99 229.77 216.54 242.61 211.98C252.1 208.61 261.6 205.22 271.05 201.71C281.79 197.72 292.62 193.97 303.42 190.17C310.49 187.69 317.39 184.65 324.68 182.8C326.93 182.23 328.51 180.84 329.67 178.9C329.65 178.72 329.65 178.52 329.65 178.32Z" fill="#830CC8"/>
<path d="M329.65 178.919C330.29 182.119 327.75 182.739 325.71 183.469C292.61 195.339 259.49 207.16 226.36 218.96C205.34 226.45 184.32 233.969 163.24 241.299C152.41 245.059 141.45 248.43 130.56 252.02C130.2 252.14 129.99 252.719 129.71 253.079C129.31 253.079 128.92 253.079 128.52 253.079C127.1 253.689 125.64 253.909 124.13 253.439C124.01 253.319 123.89 253.199 123.77 253.079C135.81 246.909 148.92 243.559 161.53 238.889C184.48 230.389 207.54 222.199 230.6 214.009C261.29 203.109 292.02 192.339 322.72 181.499C325.06 180.679 327.35 179.779 329.65 178.919Z" fill="#830CCA"/>
<path d="M82.8498 267.32C85.2798 271.18 82.9398 272.31 79.6798 273.45C67.3398 277.77 55.0298 282.19 42.7898 286.79C39.1698 288.15 36.9798 287.17 35.3898 283.94C51.1998 278.39 67.0298 272.85 82.8498 267.32Z" fill="#830CCA"/>
<path d="M120.82 254.86C119.44 255.06 118.05 255.26 116.67 255.45C118.51 253.06 121.32 253.57 123.79 253.08C124.38 254.18 123.77 254.47 122.82 254.56C122.14 254.62 121.42 254.36 120.82 254.86Z" fill="#830CCA"/>
<path d="M25.8898 260.199C25.2998 259.609 24.6998 259.009 24.1098 258.419C23.5198 255.649 22.9198 252.879 22.3298 250.109C47.3898 241.259 72.4598 232.46 97.4898 223.53C112.19 218.28 126.79 212.769 141.47 207.469C155.92 202.249 170.42 197.139 184.9 191.979C184.96 191.869 185.03 191.769 185.09 191.659C185.72 191.279 186.33 190.879 186.68 190.199C196.2 188.109 205.77 186.269 215.21 183.889C233.88 179.179 252.45 174.109 271.1 169.329C275.85 168.109 280.73 167.409 285.57 166.529C286.2 166.419 286.89 166.649 287.56 166.719C287.01 167.189 286.53 167.859 285.89 168.089C259.39 177.549 232.86 186.93 206.36 196.4C186.52 203.49 166.75 210.749 146.9 217.789C118.38 227.899 89.7498 237.729 61.2798 247.999C49.5298 252.239 37.9698 256.939 25.8898 260.199Z" fill="#890BD3"/>
<path d="M178.96 192.56C177.56 194.2 176.01 194.66 174.21 193.15C175.79 192.96 177.38 192.76 178.96 192.56Z" fill="#890BD3"/>
<path d="M184.89 191.97C183.7 191.97 182.52 191.97 181.33 191.97C181.97 189.92 183.68 191.12 184.89 190.78C185.26 191.18 185.24 191.57 184.89 191.97Z" fill="#890BD3"/>
<path d="M184.89 191.97C184.89 191.57 184.89 191.18 184.89 190.78C185.48 190.58 186.08 190.39 186.67 190.19C187.42 192.12 185.98 191.87 184.89 191.97Z" fill="#8A0CD5"/>
<path d="M18.3398 234.979C17.8698 231.789 19.1798 231.01 21.1798 230.52C40.4698 225.83 59.7098 220.939 79.0298 216.379C94.1298 212.819 109.31 209.639 124.46 206.319C125 206.199 125.6 206.399 126.18 206.449C125.69 206.819 125.25 207.339 124.7 207.539C102.47 215.509 80.2298 223.439 57.9998 231.409C46.4398 235.559 35.1098 240.66 23.2398 243.55C17.9298 244.83 20.6898 236.959 18.3398 234.979Z" fill="#8C0AD8"/>
<path d="M120.82 254.86C121.81 254.27 122.8 253.67 123.79 253.08C125.37 253.08 126.95 253.08 128.54 253.08C126.24 254.91 123.52 254.85 120.82 254.86Z" fill="#830CC8"/>
<path d="M184.89 239.43C185.9 237.74 187.33 237.48 189.04 238.24C187.66 238.64 186.28 239.04 184.89 239.43Z" fill="#820CC7"/>
<path d="M178.37 241.209C179.47 239.799 180.86 239.459 182.52 240.019C181.13 240.419 179.75 240.819 178.37 241.209Z" fill="#820CC7"/>
<path d="M168.87 243.59C169.59 242.07 170.87 241.66 172.43 241.81C171.25 242.4 170.06 242.99 168.87 243.59Z" fill="#820CC7"/>
<path d="M65.0298 146.27C65.8498 146.76 66.6497 147.42 65.5397 148.21C65.1397 148.49 63.7498 148.19 63.5298 147.78C62.6698 146.12 65.0697 147.36 65.0397 146.27H65.0298Z" fill="#9609EA"/>
<path d="M206.87 114.34C206.76 114.07 206.53 113.71 206.6 113.63C206.81 113.39 207.13 113.2 207.44 113.12C207.6 113.08 207.82 113.33 208.02 113.44C207.74 113.66 207.46 113.88 206.87 114.34Z" fill="#9509E8"/>
<path d="M224.05 229.94C229.47 228.15 234.91 226.42 240.31 224.56C254.6 219.65 268.89 214.74 283.15 209.73C298.15 204.47 312.98 198.65 328.15 193.97C335.14 191.82 329.67 187.2 331.43 184.26C332.83 188.7 334 193.18 333.8 197.91C333.8 198.9 333.8 199.89 333.8 200.88C331.25 202.47 328.05 202.28 325.49 203.85C312.56 207.39 299.66 211.09 286.68 214.42C270.55 218.56 254.34 222.4 238.16 226.38C233.46 227.53 228.76 228.75 224.05 229.94Z" fill="#820CC7"/>
<path d="M209.81 233.5C214.2 230.9 219 229.91 224.05 229.94C219.3 231.13 214.56 232.31 209.81 233.5Z" fill="#820CC7"/>
<path d="M325.5 203.84C327.92 201.87 330.73 200.99 333.81 200.87C331.87 204.2 328.16 202.54 325.5 203.84Z" fill="#800FC3"/>
<path d="M206.25 234.09C207.44 233.89 208.62 233.69 209.81 233.5C208.62 233.7 207.44 233.9 206.25 234.09Z" fill="#820CC7"/>
</svg>
